# xmcd CD database file
#
# Track frame offsets:
#	150
#	19735
#	36285
#	55602
#	91100
#	107135
#	120955
#	142187
#	163480
#	184567
#	211952
#
# Disc length: 3098 seconds
#
# Revision: 0
# Processed by: cddbd v1.5.1PL0 Copyright (c) Steve Scherf et al.
# Submitted via: CDex 1.51
#
DISCID=910c180b
DTITLE=Thornetta Davis - Covered live at the music menu
DYEAR=2001
DGENRE=Blues
TTITLE0=I'd Rather Drink Muddy Water
TTITLE1=That's a Pretty Good Love
TTITLE2=C.C. Rider
TTITLE3=Please Send Me Someone to Love
TTITLE4=Wild Women Never Get the Blues
TTITLE5=Hound Dog
TTITLE6=Kissin' My Love
TTITLE7=I Just Wanna Make Love to You
TTITLE8=Meet Me With Your Black Drawers On
TTITLE9=Damn Your Eyes
TTITLE10=Rock Me a Little While
EXTD=YEAR: 2001
EXTT0=
EXTT1=
EXTT2=
EXTT3=
EXTT4=
EXTT5=
EXTT6=
EXTT7=
EXTT8=
EXTT9=
EXTT10=
PLAYORDER=
